<?xml version="1.0" encoding="utf-8"?>
<!-- Generator: Adobe Illustrator 19.1.1, SVG Export Plug-In . SVG Version: 6.00 Build 0)  -->
<svg version="1.1" id="Layer_1" xmlns="http://www.w3.org/2000/svg" xmlns:xlink="http://www.w3.org/1999/xlink" x="0px" y="0px"
	 viewBox="0 0 25.2 26.8" style="enable-background:new 0 0 25.2 26.8;" xml:space="preserve">
<style type="text/css">
	.st0{fill:#5B5C5C;}
</style>
	<g>
		<path class="st0" d="M13.5,0l-2.7,0v25.9H9.9C9.4,25.9,9,25.5,9,25V0.9l0,0C9,0.4,8.6,0,8.1,0v0H5.4l0,0v0v0.9v25H4.5
			c-0.5,0-0.8-0.3-0.9-0.8c0,0,0-0.1,0-0.1c0-0.1,0-0.2,0-0.2V0.9C3.6,0.4,3.2,0,2.7,0h0H0v25v0c0,1,0.8,1.8,1.8,1.8h1.8h1.8H9h3.6h0
			c1,0,1.8-0.8,1.8-1.8V0.9C14.4,0.4,14,0,13.5,0"/>
		<path class="st0" d="M21.6,0.9h-0.9c0.5,0,0.8,0.4,0.9,0.8c0,0,0,0.1,0,0.1c0,0.1,0,0.1,0,0.2v24h-0.9c-0.5,0-0.9-0.4-0.9-0.9V0.9
			L21.6,0.9L21.6,0.9z M23.4,0L23.4,0h-3.6h-3.6v0.9v25v0.9h3.6h1.8h1.8h0c0.9,0,1.7-0.7,1.8-1.7l0,0l0,0c0,0,0,0,0-0.1V2
			c0-0.1,0-0.1,0-0.2C25.2,0.8,24.4,0,23.4,0"/>
	</g>
</svg>
